grf
version=1
nRows=7
nColumns=37
inDegrees=no
endheader
time	ground_force_1_vx	ground_force_1_vy	ground_force_1_vz	ground_force_1_px	ground_force_1_py	ground_force_1_pz	ground_moment_1_mx	ground_moment_1_my	ground_moment_1_mz	ground_force_2_vx	ground_force_2_vy	ground_force_2_vz	ground_force_2_px	ground_force_2_py	ground_force_2_pz	ground_moment_2_mx	ground_moment_2_my	ground_moment_2_mz	ground_force_3_vx	ground_force_3_vy	ground_force_3_vz	ground_force_3_px	ground_force_3_py	ground_force_3_pz	ground_moment_3_mx	ground_moment_3_my	ground_moment_3_mz	ground_force_4_vx	ground_force_4_vy	ground_force_4_vz	ground_force_4_px	ground_force_4_py	ground_force_4_pz	ground_moment_4_mx	ground_moment_4_my	ground_moment_4_mz
      0.00000000	      0.00000000	     -0.00000000	      0.00000000	      0.00000000	      0.00000000	      0.00000000	      0.00000000	      0.00000000	      0.00000000	     -3.73345900	     -2.13912964	   -766.34747314	   -303.47637422	  -1038.05846691	      0.00000000	      0.00000000	      0.00000000	     93.96542859	      0.00000000	     -0.00000000	      0.00000000	      0.00000000	      0.00000000	      0.00000000	      0.00000000	      0.00000000	      0.00000000	    -34.47942591	     16.28450695	     75.84747314	    603.23403641	   -564.78039278	      0.00000000	      0.00000000	     -0.00000000	    -98.40200171
      0.01000000	      0.00000000	     -0.00000000	      0.00000000	      0.00000000	      0.00000000	      0.00000000	      0.00000000	      0.00000000	      0.00000000	     -4.31996202	     -2.03651643	   -765.69409180	   -302.64859708	  -1038.04767012	      0.00000000	      0.00000000	     -0.00000000	     45.70089524	      0.00000000	     -0.00000000	      0.00000000	      0.00000000	      0.00000000	      0.00000000	      0.00000000	      0.00000000	      0.00000000	    -34.56882717	     16.15646283	     75.06306458	    608.08560578	   -565.49405790	      0.00000000	      0.00000000	     -0.00000000	   -100.64528086
      0.02000000	      0.00000000	     -0.00000000	      0.00000000	      0.00000000	      0.00000000	      0.00000000	      0.00000000	      0.00000000	      0.00000000	     -4.23371840	     -2.48205519	   -765.44860840	   -301.96024052	  -1038.14688126	      0.00000000	     -0.00000000	      0.00000000	    191.21280051	      0.00000000	     -0.00000000	      0.00000000	      0.00000000	      0.00000000	      0.00000000	      0.00000000	      0.00000000	      0.00000000	    -34.90265893	     16.43657608	     75.69695282	    605.80593913	   -565.99964128	      0.00000000	      0.00000000	     -0.00000000	   -166.73503038
      0.03000000	      0.00000000	     -0.00000000	      0.00000000	      0.00000000	      0.00000000	      0.00000000	      0.00000000	      0.00000000	      0.00000000	     -4.74191618	     -2.02605391	   -764.17248535	   -301.52959800	  -1038.08193558	      0.00000000	      0.00000000	      0.00000000	     87.16176042	      0.00000000	     -0.00000000	      0.00000000	      0.00000000	      0.00000000	      0.00000000	      0.00000000	      0.00000000	      0.00000000	    -35.02999355	     16.19453736	     76.35956573	    602.08802951	   -562.85433278	      0.00000000	      0.00000000	      0.00000000	     36.12998583
      0.04000000	      0.00000000	     -0.00000000	      0.00000000	      0.00000000	      0.00000000	      0.00000000	      0.00000000	      0.00000000	      0.00000000	     -5.08499908	     -2.23216581	   -761.97375488	   -300.98389506	  -1037.37260507	      0.00000000	      0.00000000	     -0.00000000	    -81.49611581	      0.00000000	     -0.00000000	      0.00000000	      0.00000000	      0.00000000	      0.00000000	      0.00000000	      0.00000000	      0.00000000	    -34.72399761	     16.16615790	     76.30441284	    601.31156669	   -561.62721945	      0.00000000	      0.00000000	     -0.00000000	    -79.94071329
      0.05000000	      0.00000000	     -0.00000000	      0.00000000	      0.00000000	      0.00000000	      0.00000000	      0.00000000	      0.00000000	      0.00000000	     -4.99578857	     -1.64625430	   -763.83459473	   -300.51534204	  -1037.57098863	      0.00000000	     -0.00000000	      0.00000000	     22.88696693	      0.00000000	     -0.00000000	      0.00000000	      0.00000000	      0.00000000	      0.00000000	      0.00000000	      0.00000000	      0.00000000	    -34.55435419	     16.32233540	     76.23235321	    601.99638893	   -562.85800981	      0.00000000	      0.00000000	     -0.00000000	    -83.68866253
      0.06000000	      0.00000000	     -0.00000000	      0.00000000	      0.00000000	      0.00000000	      0.00000000	      0.00000000	      0.00000000	      0.00000000	     -5.09913158	     -1.70759726	   -765.93542480	   -300.05826961	  -1039.01828978	      0.00000000	     -0.00000000	     -0.00000000	    -36.59300815	      0.00000000	     -0.00000000	      0.00000000	      0.00000000	      0.00000000	      0.00000000	      0.00000000	      0.00000000	      0.00000000	    -34.68112042	     16.09010427	     76.80210114	    600.98516316	   -564.33846828	      0.00000000	      0.00000000	      0.00000000	      5.76404580
